<?xml version="1.0" encoding="UTF-8"?>
<svg xmlns="http://www.w3.org/2000/svg" xmlns:xlink="http://www.w3.org/1999/xlink" width="32px" height="32px" viewBox="0 0 32 32" version="1.1">
<g id="surface1">
<path style=" stroke:none;fill-rule:nonzero;fill:rgb(100%,33.333333%,50.588235%);fill-opacity:1;" d="M 0 16 L 0 32 L 32 32 L 32 0 L 0 0 Z M 27.800781 16.035156 L 27.75 27.917969 L 4.082031 27.917969 L 4.035156 16.25 C 4.015625 9.832031 4.035156 4.484375 4.082031 4.367188 C 4.132812 4.214844 6.683594 4.167969 16 4.167969 L 27.832031 4.167969 Z M 27.800781 16.035156 "/>
<path style=" stroke:none;fill-rule:nonzero;fill:rgb(100%,33.333333%,50.588235%);fill-opacity:1;" d="M 6.449219 6.617188 C 6.382812 6.667969 6.332031 10.949219 6.332031 16.117188 L 6.332031 25.5 L 25.5 25.5 L 25.5 20.832031 L 18.382812 20.800781 L 11.25 20.75 L 11.199219 13.617188 L 11.167969 6.5 L 8.867188 6.5 C 7.601562 6.5 6.5 6.550781 6.449219 6.617188 Z M 6.449219 6.617188 "/>
<path style=" stroke:none;fill-rule:nonzero;fill:rgb(100%,33.333333%,50.588235%);fill-opacity:1;" d="M 13.617188 6.617188 C 13.550781 6.667969 13.5 9.332031 13.5 12.535156 L 13.5 18.332031 L 25.515625 18.332031 L 25.464844 16.035156 L 25.417969 13.75 L 21.917969 13.667969 L 18.417969 13.582031 L 18.367188 10.035156 L 18.332031 6.5 L 16.015625 6.5 C 14.75 6.5 13.667969 6.550781 13.617188 6.617188 Z M 13.617188 6.617188 "/>
<path style=" stroke:none;fill-rule:nonzero;fill:rgb(100%,33.333333%,50.588235%);fill-opacity:1;" d="M 20.832031 8.917969 L 20.832031 11.332031 L 25.332031 11.332031 L 25.332031 6.5 L 20.832031 6.5 Z M 20.832031 8.917969 "/>
</g>
</svg>
