<svg version="1.0" xmlns="http://www.w3.org/2000/svg"
 width="192.000000pt" height="192.000000pt" viewBox="0 0 192.000000 192.000000"
 preserveAspectRatio="xMidYMid meet">

<g transform="translate(0.000000,192.000000) scale(0.100000,-0.100000)"
fill="#ffffff" stroke="none">
<path d="M0 960 l0 -960 960 0 960 0 0 960 0 960 -960 0 -960 0 0 -960z m1668
-3 l2 -707 -710 0 -710 0 0 710 0 710 708 -2 707 -3 3 -708z"/>
<path d="M380 955 l0 -575 575 0 575 0 0 150 0 150 -428 2 -427 3 -3 423 -2
422 -145 0 -145 0 0 -575z"/>
<path d="M810 1170 l0 -360 360 0 360 0 0 145 0 145 -210 0 -210 0 0 215 0
215 -150 0 -150 0 0 -360z"/>
<path d="M1240 1385 l0 -145 145 0 145 0 0 145 0 145 -145 0 -145 0 0 -145z"/>
</g>
</svg>