<?xml version="1.0" encoding="UTF-8"?>
<svg xmlns="http://www.w3.org/2000/svg" xmlns:xlink="http://www.w3.org/1999/xlink" width="1024px" height="1024px" viewBox="0 0 1024 1024" version="1.1">
<g id="surface1">
<path style=" stroke:none;fill-rule:nonzero;fill:rgb(100%,33.333333%,50.588235%);fill-opacity:1;" d="M 0 512 L 0 1024 L 1024 1024 L 1024 0 L 0 0 Z M 889.601562 513.066406 L 888 893.332031 L 130.667969 893.332031 L 129.066406 520 C 128.535156 314.667969 129.066406 143.464844 130.667969 139.734375 C 132.265625 134.933594 213.867188 133.332031 512 133.332031 L 890.667969 133.332031 Z M 889.601562 513.066406 "/>
<path style=" stroke:none;fill-rule:nonzero;fill:rgb(100%,33.333333%,50.588235%);fill-opacity:1;" d="M 206.398438 211.734375 C 204.265625 213.332031 202.667969 350.398438 202.667969 515.734375 L 202.667969 816 L 816 816 L 816 666.667969 L 588.265625 665.601562 L 360 664 L 358.398438 435.734375 L 357.332031 208 L 283.734375 208 C 243.199219 208 208 209.601562 206.398438 211.734375 Z M 206.398438 211.734375 "/>
<path style=" stroke:none;fill-rule:nonzero;fill:rgb(100%,33.333333%,50.588235%);fill-opacity:1;" d="M 435.734375 211.734375 C 433.601562 213.332031 432 298.667969 432 401.066406 L 432 586.667969 L 816.535156 586.667969 L 814.933594 513.066406 L 813.332031 440 L 701.332031 437.332031 L 589.332031 434.667969 L 587.734375 321.066406 L 586.667969 208 L 512.535156 208 C 472 208 437.332031 209.601562 435.734375 211.734375 Z M 435.734375 211.734375 "/>
<path style=" stroke:none;fill-rule:nonzero;fill:rgb(100%,33.333333%,50.588235%);fill-opacity:1;" d="M 666.667969 285.332031 L 666.667969 362.667969 L 810.667969 362.667969 L 810.667969 208 L 666.667969 208 Z M 666.667969 285.332031 "/>
</g>
</svg>
